<?xml version="1.0" encoding="utf-8"?>
<svg version="1.1" xmlns:xlink="http://www.w3.org/1999/xlink" width="320px" height="217px" xmlns="http://www.w3.org/2000/svg">
  <g>
    <path d="M 0 0  L 320 0  L 320 217  L 0 217  L 0 0  " fill-rule="nonzero" fill="#cccccc" stroke="none" />
    <path d="M 15 15  L 305 15  L 305 202  L 15 202  L 15 15  " fill-rule="nonzero" fill="#ffffff" stroke="none" />
    <path d="M 182.675 65.1  C 173.561 65.1  166.4 57.939  166.4 48.825  C 166.4 39.711  173.561 32.55  182.675 32.55  C 191.789 32.55  198.95 39.711  198.95 48.825  C 198.95 57.939  191.789 65.1  182.675 65.1  " fill-rule="nonzero" fill="#cccccc" stroke="none" />
    <path d="M 21 197  L 21 100.2  L 90.75 56.2  L 188.4 125.39  L 244.2 82.6  L 300 125.39  L 300 197  L 21 197  " fill-rule="nonzero" fill="#169bd5" stroke="none" />
  </g>
</svg>